#!OML:ASF I:\Actors\actors\Patient Classification 2\Patient 1\Session 1\actor1.ASF
:FULLY-SPECIFIED
:DEGREES
184
root -0.69947 18.2531 4.5485 7.73765 1.76097 -1.94835
lowerback 22.3569 1.23019 -4.61133
upperback 2.12078 0.387785 -0.802658
thorax -10.2102 0.361587 1.63242
lowerneck -31.2725 -4.80417 -4.03526
upperneck 21.5091 -6.00486 3.99376
head 12.5113 -2.41987 1.0316
rclavicle 1.86858e-014 -3.18055e-015
rhumerus 19.2194 26.7932 -76.0145
rradius 51.9425
rwrist -39.3987
rhand -5.31651 -72.7927
rfingers 7.12502
rthumb 20.4893 101.732
lclavicle 1.86858e-014 -3.18055e-015
lhumerus 13.7764 -32.0324 89.09
lradius 63.1562
lwrist 83.5182
lhand -38.9998 3.60863
lfingers 7.12502
lthumb -12.0034 33.2444
rfemur 4.89404 -1.42701 16.3143
rtibia -17.6782
rfoot -4.76442 -18.5075
rtoes 1.27011
lfemur 4.83479 -2.56615 -11.1271
ltibia -18.9555
lfoot 5.30028 13.7318
ltoes -17.875
185
root -0.695275 18.2564 4.57068 7.58395 1.72374 -1.95288
lowerback 22.2036 1.16234 -4.47896
upperback 1.93266 0.326876 -0.870324
thorax -10.3335 0.330571 1.49986
lowerneck -31.0098 -4.68629 -3.95286
upperneck 22.2744 -5.84786 3.73101
head 12.7507 -2.37736 0.950303
rclavicle 7.95139e-015 7.95139e-016
rhumerus 19.4756 26.8003 -75.9852
rradius 51.8119
rwrist -39.0351
rhand -5.16515 -72.3095
rfingers 7.12502
rthumb 20.6347 101.233
lclavicle 7.95139e-015 7.95139e-016
lhumerus 13.8175 -32.001 89.0551
lradius 62.742
lwrist 81.6974
lhand -37.0386 2.84039
lfingers 7.12502
lthumb -10.1119 32.5774
rfemur 4.99704 -1.30919 16.2989
rtibia -17.3856
rfoot -4.99886 -18.4082
rtoes 1.19051
lfemur 5.02633 -2.73391 -11.1426
ltibia -18.7984
lfoot 5.10245 13.8947
ltoes -17.7387
186
root -0.69187 18.26 4.59352 7.50772 1.6282 -1.95892
lowerback 21.9689 1.12719 -4.3648
upperback 1.76458 0.310891 -0.922141
thorax -10.3927 0.319969 1.38221
lowerneck -30.7029 -4.62123 -3.95723
upperneck 22.9769 -5.74989 3.56487
head 12.9687 -2.35636 0.908968
rclavicle 7.95139e-016 -1.11319e-014
rhumerus 19.5349 26.7396 -76.1263
rradius 51.8125
rwrist -38.6649
rhand -4.88945 -72.2481
rfingers 7.12502
rthumb 20.8996 101.142
lclavicle 7.95139e-016 -1.11319e-014
lhumerus 13.7456 -31.7923 89.1861
lradius 63.2333
lwrist 81.7323
lhand -38.7321 3.73212
lfingers 7.12502
lthumb -11.7453 33.3828
rfemur 5.03358 -1.20466 16.287
rtibia -17.1498
rfoot -5.15351 -18.2945
rtoes 1.14005
lfemur 5.17989 -2.83709 -11.1628
ltibia -18.6963
lfoot 4.93969 14.0403
ltoes -17.7291
187
root -0.691007 18.2619 4.61313 7.49912 1.5194 -1.93668
lowerback 21.7228 1.1131 -4.33935
upperback 1.60071 0.301886 -0.968874
thorax -10.4414 0.316361 1.31885
lowerneck -30.2336 -4.52148 -3.8973
upperneck 23.4606 -5.63496 3.42272
head 13.067 -2.32364 0.87224
rclavicle -8.74653e-015 3.97569e-015
rhumerus 19.3352 26.5973 -76.4687
rradius 51.9722
rwrist -38.1138
rhand -4.30001 -72.3425
rfingers 7.12502
rthumb 21.4658 101.173
lclavicle -8.74653e-015 3.97569e-015
lhumerus 13.5795 -31.8216 89.2905
lradius 63.2724
lwrist 80.2495
lhand -38.4585 3.67748
lfingers 7.12502
lthumb -11.4815 33.3431
rfemur 5.01853 -1.07732 16.2491
rtibia -16.9954
rfoot -5.28384 -18.2442
rtoes 1.11303
lfemur 5.26444 -2.86486 -11.2021
ltibia -18.6292
lfoot 4.80052 14.1213
ltoes -17.5786
188
root -0.690003 18.2623 4.62743 7.53906 1.45906 -1.92269
lowerback 21.5527 1.09192 -4.27253
upperback 1.43776 0.288361 -1.02333
thorax -10.53 0.309049 1.22414
lowerneck -29.7098 -4.41136 -3.78309
upperneck 23.78 -5.51658 3.26007
head 13.0851 -2.2897 0.820152
rclavicle -8.34896e-015 -1.35174e-014
rhumerus 18.8713 26.5112 -76.9022
rradius 52.27
rwrist -37.9366
rhand -4.50628 -72.6579
rfingers 7.12502
rthumb 21.2677 101.511
lclavicle -8.34896e-015 -1.35174e-014
lhumerus 13.2249 -32.0564 89.386
lradius 63.0932
lwrist 78.3126
lhand -37.036 2.50353
lfingers 7.12502
lthumb -10.1094 32.2407
rfemur 4.99847 -0.959376 16.2205
rtibia -16.9608
rfoot -5.42698 -18.2787
rtoes 1.21791
lfemur 5.26947 -2.89261 -11.2204
ltibia -18.5764
lfoot 4.7053 14.1943
ltoes -17.2603
189
root -0.689091 18.262 4.63845 7.60777 1.38305 -1.8538
lowerback 21.4376 1.07392 -4.24654
upperback 1.30525 0.264959 -1.09525
thorax -10.6142 0.297899 1.13622
lowerneck -29.2506 -4.28107 -3.60842
upperneck 24.0598 -5.36186 3.00741
head 13.0921 -2.24654 0.729229
rclavicle -2.38542e-015 7.95139e-016
rhumerus 18.3361 26.5457 -77.3143
rradius 52.4874
rwrist -37.7256
rhand -4.48088 -72.7577
rfingers 7.12502
rthumb 21.2921 101.608
lclavicle -2.38542e-015 7.95139e-016
lhumerus 12.685 -32.2249 89.5545
lradius 63.133
lwrist 76.9237
lhand -36.3456 1.40857
lfingers 7.12502
lthumb -9.44329 31.177
rfemur 5.00421 -0.850803 16.1311
rtibia -17.0639
rfoot -5.47975 -18.3467
rtoes 1.40069
lfemur 5.24188 -2.92703 -11.296
ltibia -18.5597
lfoot 4.64199 14.3128
ltoes -16.9384
190
root -0.689669 18.26 4.6459 7.6851 1.26627 -1.76796
lowerback 21.2807 1.08665 -4.28062
upperback 1.26513 0.273957 -1.15776
thorax -10.5732 0.301784 1.08461
lowerneck -28.8834 -4.14469 -3.39936
upperneck 24.3342 -5.20711 2.75376
head 13.1135 -2.19855 0.630839
rclavicle 7.15625e-015 -7.15625e-015
rhumerus 17.8607 26.9767 -77.4203
rradius 52.6934
rwrist -38.8729
rhand -6.18516 -69.2121
rfingers 7.12502
rthumb 19.6544 98.2385
lclavicle 7.15625e-015 -7.15625e-015
lhumerus 12.1816 -32.3228 89.7853
lradius 63.4077
lwrist 75.7465
lhand -36.7923 1.04966
lfingers 7.12502
lthumb -9.87424 30.7981
rfemur 5.03671 -0.805648 16.0328
rtibia -17.2947
rfoot -5.32173 -18.3761
rtoes 1.34826
lfemur 5.22101 -2.90693 -11.3881
ltibia -18.5922
lfoot 4.60607 14.396
ltoes -16.8259
